<svg id="Capa_1" data-name="Capa 1" xmlns="http://www.w3.org/2000/svg" viewBox="0 0 36 36"><defs><style>.cls-1{fill:#fff;}</style></defs><rect width="36" height="36" rx="8"/><path class="cls-1" d="M17.42,15.38H19.5V12.24h3.13v-2.1H19.5V7H17.42v3.14H14.29v2.1h3.13Zm-4.17,9.43a2.1,2.1,0,1,0,2.08,2.09A2.08,2.08,0,0,0,13.25,24.81Zm10.42,0a2.1,2.1,0,1,0,2.08,2.09A2.09,2.09,0,0,0,23.67,24.81ZM13.43,21.4l0-.12.94-1.71h7.76A2.06,2.06,0,0,0,24,18.49l4-7.34-1.81-1h0L25,12.24l-2.87,5.24H14.84l-.13-.29-2.33-5-1-2.1-1-2.09H7v2.09H9.08l3.75,8-1.4,2.57a2,2,0,0,0-.26,1,2.09,2.09,0,0,0,2.08,2.09h12.5V21.67H13.69A.27.27,0,0,1,13.43,21.4Z"/></svg>